<svg xmlns="http://www.w3.org/2000/svg" width="512" height="512" style="fill:none;stroke:none"><g><path d="M36.637 24.258C27.071 29.589 13.006 30.681.73 30.701c-12.278.021-27.852-1.672-37.759-6.315C-33.036.024-35.418-18.25-32.266-18.25c-4.522-3.446-5.531-5.863-3.179-9.384.738-1.105 2.683-.423 3.727-.815l28.533-.81-.009-1.463.008 1.297 3.064.083 3.064-.083.006-1.297-.007 1.463 28.363.81c1.043.392 3.59-.722 4.193.456 2.3 4.49-1.592 8.745-3.645 9.743.053 8.068 2.964 31.514 4.785 42.508z" style="fill-opacity:1;fill:#ffad4f;fill-rule:nonzero" transform="translate(258.702 393.961) scale(3.77955)"/><path d="M33.353-18.093c-4.183-.265-11.17 3.298-10.227 8.231 1.15 6.01 5.7 1.613 7.224-1.127.841-1.509 3.782-4.016 3.004-5.543-.507-.993.054-.408-.001-1.561zM34.9 13.791c1.318-.565 1.277 1.946.278 2.081-2.361.318-4.851 1.359-7.394-.494-2.431-1.771-4.982-4.958-7.235-5.05-.258 1.211-.615 2.32-1.069 3.269-2.196 4.584-7.109 4.76-11.759 4.76-9.131 0-23.311-.61-29.024-8.016l-.373-.575c-1.303.761-2.67 2.133-4.027 3-3.169 2.023-6.343 3.2-9.015 3.2-1.008 0-1.499-4.698-.181-4.132.891-1.978 1.074-2.697 3.088-4.042 1.371-.914 6.888-3.795 8.351-3.852l.112-.003c-.575-3.476-.857-7.584-.985-10.838-1.817.435-4.276-2.214-5.319-4.088-.84-1.509-3.781-4.016-3.002-5.543.507-.993-.054-.408.001-1.561 3.476-.22 8.889 2.205 10.077 5.863l6.905-2.875c9.213 2.087 26.125.736 32.399 6.654 2.688 2.536 4.122 7.576 4.31 12.501a20.46 20.46 0 0 1 2.881-.11c1.464.057 6.98 2.937 8.351 3.852 2.015 1.345 1.739 4.023 2.63 5.999z" style="fill-opacity:1;fill:#f4893a;fill-rule:nonzero" transform="translate(256.31 398.36) scale(3.77955)"/><path d="M26.795 25.633c-8.228 2.188-17.768 2.736-26.42 2.75-8.469.015-18.505-.787-27.169-2.809-.007-11.252.037-53.516 6.224-53.972L0-26.625l20.57-1.773c6.197.457 6.231 42.871 6.225 54.031z" style="fill-opacity:1;fill:#fff;fill-rule:nonzero" transform="translate(260.044 402.722) scale(3.77955)"/><path d="M12.611 3.854c3.767-1.202 7.985-1.772 10.731-1.663 0 0 .566-4.146.924-8.101a11.688 11.688 0 0 1-2.03 2.138c-3.225 2.646-6.349 5.246-9.625 7.626zm13.165-16.746s.133 1.05.211 1.969l.01.12c.328 3.92.758 11.861.995 17.666.133 3.27.127 5.993.142 6.712-4.117-2.998-7.864-3.945-12.471-1.472-4.018 2.157-8.124-.909-9.149-3.685a51.503 51.503 0 0 1-5.349 2.573c-1.85.76-4.278-.431-7.06-2.568-1.021 2.775-4.584 5.952-8.557 3.82-3.59-1.928-7.17-3.559-10.815-1.234.052-2.121.175-6.007.263-8.226.85-.345 1.967-.592 1.967-.592 3.42-.136 8.81.738 12.889 2.586C-12.746 3.313-14.41 1.725-16.11.15c-6.971-6.453-11.024-12.059-8.773-14.526l39.976 1.669c2.838 1.201 8.15-.951 10.15.339l.533-.524z" style="fill-opacity:1;fill:#e0d8d0;fill-rule:nonzero" transform="translate(258.49 404.975) scale(3.77955)"/><g style="stroke:#d06612;stroke-opacity:1;stroke-width:1.984;stroke-linecap:round;stroke-linejoin:round"><path d="M-37.029 27.554c3.993-24.361 1.61-42.636 4.762-42.636-4.522-3.446-5.53-5.863-3.178-9.384.738-1.105 2.682-.423 3.726-.815l28.533-.81-.009-1.463.008 1.297 3.065.083 3.063-.083.006-1.297-.006 1.463 28.362.81c1.044.392 3.592-.722 4.194.456 2.301 4.49-1.592 8.745-3.644 9.743.052 8.068 2.963 31.514 4.784 42.508" transform="translate(258.702 381.988) scale(3.77955)"/></g></g><g><g style="fill-opacity:1;fill:#ffad4f;fill-rule:nonzero;stroke:#d06612;stroke-opacity:1;stroke-width:1.984;stroke-linecap:round;stroke-linejoin:round"><path d="M-19.202-7.719c5.018-7.632 33.115-23.946 37.789-13.282C25.402-7.607 1.038 18.643-8.863 26.145c-2.979 2.258-5.826 3.809-8.293 4.204-8.246 1.316.058-33.715-2.046-38.068z" style="fill-opacity:1;fill:#ffad4f;fill-rule:nonzero" transform="translate(404.271 97.272) scale(3.77955)"/></g><path d="M13.116-14.719C11.788-7.282 6.441 3.428.584 8.419c-5.951 5.069-9.315 7.809-11.783-1.237C-13.116.16-8.573-3.513-2.943-8.311c4.922-4.193 10.138-7.918 16.059-6.408z" style="fill-opacity:1;fill:#e37668;fill-rule:nonzero" transform="translate(414.057 97.072) scale(3.77955)"/><path d="m-.782-7.412-.74 2.502c.515-1.57 6.392-5.911 7.508-3.418.967 2.158-.198 3.19-2.171 4.511-3.412 2.285.288-.198 2.316 1.588 3.362 2.959.036 5.921-3.46 4.953-3.634-1.006 1.572.732.028 3.292-2.897 4.805-7.153-.806-9.328-3.591-2.864-3.667 4.108-7.863 5.847-9.837z" style="fill-opacity:1;fill:#ffd5ad;fill-rule:nonzero" transform="translate(391.009 107.87) scale(3.77955)"/><g style="stroke:#d06612;stroke-opacity:1;stroke-width:1.984;stroke-linecap:round;stroke-linejoin:round"><path d="M-12.454 10.395c2.98-3.969 18.188-20.79 24.908-15.991" transform="translate(416.373 62.765) scale(3.77955)"/></g><path d="m-19.376 9.129.085.931.095.758.149.946c.375 2.126-.191 2.7-.191 2.7.042-.676.07-1.304.079-1.878l.258-.281C-.776-4.407 14.934-8.716 19.376-.198c-.151-1.337-.502-2.601-1.094-3.765C13.646-14.54-14.029 1.422-19.376 9.129z" style="fill-opacity:1;fill:#ffd5ad;fill-rule:nonzero" transform="translate(405.424 32.876) scale(3.77955)"/><g style="stroke:#d06612;stroke-opacity:1;stroke-width:1.984;stroke-linecap:round;stroke-linejoin:round"><path d="M-19.202-7.719c5.018-7.632 33.115-23.946 37.789-13.282C25.402-7.607 1.038 18.643-8.863 26.145c-2.979 2.258-5.826 3.809-8.293 4.204-8.246 1.316.058-33.715-2.046-38.068z" transform="translate(404.271 97.272) scale(3.77955)"/></g></g><g><g style="fill-opacity:1;fill:#ffad4f;fill-rule:nonzero;stroke:#d06612;stroke-opacity:1;stroke-width:1.984;stroke-linecap:round;stroke-linejoin:round"><path d="M-19.202-7.719c5.018-7.632 33.115-23.946 37.789-13.282C25.402-7.607 1.038 18.643-8.863 26.145c-2.979 2.258-5.826 3.809-8.293 4.204-8.246 1.316.058-33.715-2.046-38.068z" style="fill-opacity:1;fill:#ffad4f;fill-rule:nonzero" transform="matrix(-3.77955 0 0 3.77955 113.729 97.272)"/></g><path d="M13.116-14.719C11.788-7.282 6.441 3.428.584 8.419c-5.951 5.069-9.315 7.809-11.783-1.237C-13.116.16-8.573-3.513-2.943-8.311c4.922-4.193 10.138-7.918 16.059-6.408z" style="fill-opacity:1;fill:#e37668;fill-rule:nonzero" transform="matrix(-3.77955 0 0 3.77955 103.943 97.072)"/><path d="m-.782-7.412-.74 2.502c.515-1.57 6.392-5.911 7.508-3.418.967 2.158-.198 3.19-2.171 4.511-3.412 2.285.288-.198 2.316 1.588 3.362 2.959.036 5.921-3.46 4.953-3.634-1.006 1.572.732.028 3.292-2.897 4.805-7.153-.806-9.328-3.591-2.864-3.667 4.108-7.863 5.847-9.837z" style="fill-opacity:1;fill:#ffd5ad;fill-rule:nonzero" transform="matrix(-3.77955 0 0 3.77955 126.991 107.87)"/><g style="stroke:#d06612;stroke-opacity:1;stroke-width:1.984;stroke-linecap:round;stroke-linejoin:round"><path d="M-12.454 10.395c2.98-3.969 18.188-20.79 24.908-15.991" transform="matrix(-3.77955 0 0 3.77955 101.627 62.765)"/></g><path d="m-19.376 9.129.085.931.095.758.149.946c.375 2.126-.191 2.7-.191 2.7.042-.676.07-1.304.079-1.878l.258-.281C-.776-4.407 14.934-8.716 19.376-.198c-.151-1.337-.502-2.601-1.094-3.765C13.646-14.54-14.029 1.422-19.376 9.129z" style="fill-opacity:1;fill:#ffd5ad;fill-rule:nonzero" transform="matrix(-3.77955 0 0 3.77955 112.576 32.876)"/><g style="stroke:#d06612;stroke-opacity:1;stroke-width:1.984;stroke-linecap:round;stroke-linejoin:round"><path d="M-19.202-7.719c5.018-7.632 33.115-23.946 37.789-13.282C25.402-7.607 1.038 18.643-8.863 26.145c-2.979 2.258-5.826 3.809-8.293 4.204-8.246 1.316.058-33.715-2.046-38.068z" transform="matrix(-3.77955 0 0 3.77955 113.729 97.272)"/></g></g><g><path d="M-.262-32.082C20.541-40.251 50.181-.723 47.59 17.068 44.585 37.702 18.053 40.569.126 40.664v.003l-.414-.002-.414.002v-.003c-17.927-.095-44.418-2.79-47.243-25.409C-50.181-2.651-21.065-40.667-.262-32.09v.008z" style="fill-opacity:1;fill:#ffad4f;fill-rule:nonzero" transform="translate(258.83 168.11) scale(3.77955)"/><path d="M46.815-16.291C46.436.667 24.488 2.908 15.686 2.908 10.929 2.908 4.834 2.08 0 2.812c-4.832-.732-10.93.096-15.686.096-8.802 0-30.75-2.241-31.129-19.199-3.472 14.231 5.792 24.322 17.286 28.226 3.97 1.347 19.749 4.355 29.53 3.174 9.781 1.181 25.558-1.827 29.527-3.174C41.023 8.031 50.287-2.06 46.815-16.291z" style="fill-opacity:1;fill:#f4893a;fill-rule:nonzero" transform="translate(259.504 261.5) scale(3.77955)"/><path d="M-36.402 8.114c.631 3.513 9.267-4.572 12.285-7.592 3.794-3.814 10.014-6.741 15.245-8.044 2.647-.66 5.207.626 7.948.614 2.566-.011 5.313-1.36 7.807-.802 3.765.844 9.436 2.699 13.06 5.662C23.607.946 31.073 10.387 34.497 9.124c1.906-.703-7.986-10.014-9.255-11.029-3.301-2.643-7.358-5.246-11.571-7.573-3.893-2.15-9.196-.783-14.698-.688-4.015.068-8.186-1.442-11.313-.573-3.162.88-23.047 15.427-24.062 18.853z" style="fill-opacity:1;fill:#ffd5ad;fill-rule:nonzero" transform="translate(260.747 84.185) scale(3.77955)"/><g style="stroke:#d06612;stroke-opacity:1;stroke-width:1.984;stroke-linecap:round;stroke-linejoin:round"><path d="M-28.408 36.409c-10.79-2.935-18.078-12.375-19.512-22.189-.961-6.591 1.376-13.416 7.075-22.074m80.866-.363C45.98.61 48.881 8.194 47.905 14.874c-1.363 9.336-8.375 18.062-18.461 21.09M-35.87-15.125c4.688-5.541 8.913-9.144 9.637-9.768C-17.7-32.262-8.205-36.41-.237-33.125v.008c4.41-1.731 9.285-1.221 14.204.828 4.165 1.735 7.978 4.41 11.431 7.335.798.675 5.976 5.46 9.705 9.872" transform="translate(258.736 172.022) scale(3.77955)"/></g></g><g><g><g style="fill-opacity:1;fill:#fff;fill-rule:nonzero;stroke:#231f20;stroke-opacity:1;stroke-width:1.417;stroke-miterlimit:22.93;stroke-linecap:butt;stroke-linejoin:miter"><path d="M.001 9.179c4.912 0 8.918-4.123 8.918-9.179 0-5.055-4.006-9.179-8.918-9.179-4.912 0-8.92 4.124-8.92 9.179 0 5.056 4.008 9.179 8.92 9.179z" style="fill-opacity:1;fill:#fff;fill-rule:nonzero" transform="translate(184.223 150.297) scale(3.77955)"/></g><path d="M-.336-7.749C6.227-3.388.83 6.398-6.188 4.589-7.809 4.171-3.904 6.45-3.904 6.45c1.411.688 9.502 2.316 10.39-.031 1.323-3.497.375-7.729-1.164-10.843-.537-1.088-4.138-4.342-5.658-3.325z" style="fill-opacity:1;fill:#e0d8d0;fill-rule:nonzero" transform="translate(189.306 143.592) scale(3.77955)"/><g style="stroke:#191919;stroke-opacity:1;stroke-width:1.418;stroke-miterlimit:22.93;stroke-linecap:butt;stroke-linejoin:miter"><path d="M.001 9.179c4.912 0 8.918-4.123 8.918-9.179 0-5.055-4.006-9.179-8.918-9.179-4.912 0-8.92 4.124-8.92 9.179 0 5.056 4.008 9.179 8.92 9.179z" transform="translate(184.223 150.297) scale(3.77955)"/></g><path d="M0 4.788A4.798 4.798 0 0 0 4.788 0 4.798 4.798 0 0 0 0-4.788 4.797 4.797 0 0 0-4.788 0 4.797 4.797 0 0 0 0 4.788z" style="fill-opacity:1;fill:#000;fill-rule:nonzero" transform="translate(193.747 144.722) scale(3.77955)"/><path d="M3.865-.036C3.275 1.47 1.333 2.36-.359 2.123-1.687 1.936-3.566.744-3.878-.272c-.268-.878.194-1.931 1.346-1.242.631.378 1.394 1.744 3.689 1.264 1.345-.282 1.516-2.11 2.591-1.193.398.34.306.928.117 1.407z" style="fill-opacity:1;fill:#584034;fill-rule:nonzero" transform="translate(192.87 147.56) scale(3.77955)"/><path d="m2.331.64.648-.647-.648-.65-.649.65.649.647zm-3.46 1.21A1.852 1.852 0 0 0 .723.001 1.851 1.851 0 1 0-1.129 1.85z" style="fill-opacity:1;fill:#fff;fill-rule:nonzero" transform="translate(181.097 145.202) scale(3.77955)"/><path d="M-9.772-6.284c2.686 3.249 11.281 8.18 18.2.138 3.298-3.834 2.347 5.103 1.041 7.412C6.519 6.485 1.047 9.98-3.868 8.48-7.326 7.424-11.726-4.826-9.772-6.284z" style="fill-opacity:1;fill:#ffad4f;fill-rule:nonzero" transform="translate(182.03 165.038) scale(3.77955)"/><path d="M6.919-.697c1.211-.921 4.701-4.234 3.225-.254C8.559 3.318.425 4.932-5.447 3.318c-3.075-.845-5.907-2.884-6.044-5.229-.129-2.215 2.686.404 3.619.716C-4.822-.176-1.74.359 1.507.529 2.251.568 6.919-.697 6.919-.697z" style="fill-opacity:1;fill:#f4893a;fill-rule:nonzero" transform="translate(183.399 147.213) scale(3.77955)"/><g style="stroke:#1f1a17;stroke-opacity:1;stroke-width:1.417;stroke-linecap:round;stroke-linejoin:round"><path d="M10.603-3.175C4.674 3.175-5.593 1.245-8.288-1.127" transform="translate(181.89 147.296) scale(3.77955)"/></g><path d="M6.919-.697c1.211-.921 4.701-4.234 3.225-.254C8.559 3.318.425 4.932-5.447 3.318c-3.075-.845-5.907-2.884-6.044-5.229-.129-2.215 2.686.404 3.619.716C-4.822-.176-1.74.359 1.507.529 2.251.568 6.919-.697 6.919-.697z" style="fill-opacity:1;fill:#ffad4f;fill-rule:nonzero" transform="matrix(3.32903 0 0 -5.618 183.901 117.963)"/><g style="stroke:#000;stroke-opacity:1;stroke-width:2.835;stroke-linecap:round;stroke-linejoin:round"><path d="M7.951.688C1.456-5.874-7.757-2.024-7.951 5.874" transform="translate(181.082 122.344) scale(3.77955)"/></g><g style="stroke:#d06612;stroke-opacity:1;stroke-width:1.417;stroke-linecap:round;stroke-linejoin:round"><path d="M2.327 1.343c2.166.957 3.936.712 5.631.26" transform="rotate(5.769 -1562.437 1598.131) scale(3.77955)"/></g></g><g style="fill-opacity:1;fill:#fff;fill-rule:nonzero;stroke:#231f20;stroke-opacity:1;stroke-width:1.417;stroke-miterlimit:22.93;stroke-linecap:butt;stroke-linejoin:miter"><path d="M.001 9.179c4.912 0 8.918-4.123 8.918-9.179 0-5.055-4.006-9.179-8.918-9.179-4.912 0-8.92 4.124-8.92 9.179 0 5.056 4.008 9.179 8.92 9.179z" style="fill-opacity:1;fill:#fff;fill-rule:nonzero" transform="matrix(-3.77955 0 0 3.77955 327.777 150.297)"/></g><path d="M-.336-7.749C6.227-3.388.83 6.398-6.188 4.589-7.809 4.171-3.904 6.45-3.904 6.45c1.411.688 9.502 2.316 10.39-.031 1.323-3.497.375-7.729-1.164-10.843-.537-1.088-4.138-4.342-5.658-3.325z" style="fill-opacity:1;fill:#e0d8d0;fill-rule:nonzero" transform="matrix(-3.77955 0 0 3.77955 322.694 143.592)"/><g style="stroke:#191919;stroke-opacity:1;stroke-width:1.418;stroke-miterlimit:22.93;stroke-linecap:butt;stroke-linejoin:miter"><path d="M.001 9.179c4.912 0 8.918-4.123 8.918-9.179 0-5.055-4.006-9.179-8.918-9.179-4.912 0-8.92 4.124-8.92 9.179 0 5.056 4.008 9.179 8.92 9.179z" transform="matrix(-3.77955 0 0 3.77955 327.777 150.297)"/></g><path d="M0 4.788A4.798 4.798 0 0 0 4.788 0 4.798 4.798 0 0 0 0-4.788 4.797 4.797 0 0 0-4.788 0 4.797 4.797 0 0 0 0 4.788z" style="fill-opacity:1;fill:#000;fill-rule:nonzero" transform="matrix(-3.77955 0 0 3.77955 318.253 144.722)"/><path d="M3.865-.036C3.275 1.47 1.333 2.36-.359 2.123-1.687 1.936-3.566.744-3.878-.272c-.268-.878.194-1.931 1.346-1.242.631.378 1.394 1.744 3.689 1.264 1.345-.282 1.516-2.11 2.591-1.193.398.34.306.928.117 1.407z" style="fill-opacity:1;fill:#584034;fill-rule:nonzero" transform="matrix(-3.77955 0 0 3.77955 319.13 147.56)"/><path d="m2.331.64.648-.647-.648-.65-.649.65.649.647zm-3.46 1.21A1.852 1.852 0 0 0 .723.001 1.851 1.851 0 1 0-1.129 1.85z" style="fill-opacity:1;fill:#fff;fill-rule:nonzero" transform="matrix(-3.77955 0 0 3.77955 330.903 145.202)"/><path d="M-9.772-6.284c2.686 3.249 11.281 8.18 18.2.138 3.298-3.834 2.347 5.103 1.041 7.412C6.519 6.485 1.047 9.98-3.868 8.48-7.326 7.424-11.726-4.826-9.772-6.284z" style="fill-opacity:1;fill:#ffad4f;fill-rule:nonzero" transform="matrix(-3.77955 0 0 3.77955 329.97 165.038)"/><path d="M6.919-.697c1.211-.921 4.701-4.234 3.225-.254C8.559 3.318.425 4.932-5.447 3.318c-3.075-.845-5.907-2.884-6.044-5.229-.129-2.215 2.686.404 3.619.716C-4.822-.176-1.74.359 1.507.529 2.251.568 6.919-.697 6.919-.697z" style="fill-opacity:1;fill:#f4893a;fill-rule:nonzero" transform="matrix(-3.77955 0 0 3.77955 328.601 147.213)"/><g style="stroke:#1f1a17;stroke-opacity:1;stroke-width:1.417;stroke-linecap:round;stroke-linejoin:round"><path d="M10.603-3.175C4.674 3.175-5.593 1.245-8.288-1.127" transform="matrix(-3.77955 0 0 3.77955 330.11 147.296)"/></g><path d="M6.919-.697c1.211-.921 4.701-4.234 3.225-.254C8.559 3.318.425 4.932-5.447 3.318c-3.075-.845-5.907-2.884-6.044-5.229-.129-2.215 2.686.404 3.619.716C-4.822-.176-1.74.359 1.507.529 2.251.568 6.919-.697 6.919-.697z" style="fill-opacity:1;fill:#ffad4f;fill-rule:nonzero" transform="matrix(-3.32903 0 0 -5.618 328.099 117.963)"/><g style="stroke:#000;stroke-opacity:1;stroke-width:2.835;stroke-linecap:round;stroke-linejoin:round"><path d="M7.951.688C1.456-5.874-7.757-2.024-7.951 5.874" transform="matrix(-3.77955 0 0 3.77955 330.918 122.344)"/></g><g style="stroke:#d06612;stroke-opacity:1;stroke-width:1.417;stroke-linecap:round;stroke-linejoin:round"><path d="M1.655 1.201c1.685.909 4.167.848 5.688.204" transform="matrix(-3.75688 .41337 .41337 3.75688 359.272 165.147)"/></g></g><g><path d="M-.658-33.512c-4.881.081-6.787 1.994-7.229 5.321-.656 4.939 1.928 5.776-1.64 10.236-2.329 2.912-10.533 5.688-10.065 11.579.224 2.824-1.549 5.648-6.377 8.986-7.892 5.456-2.595 16.839 2.364 24.114 4.132 6.059 42.384 6.791 47.155-.209 4.959-7.273 10.311-18.384 2.42-23.839-4.828-3.338-7.814-6.228-7.59-9.052.467-5.891-7.736-8.667-10.067-11.579-3.566-4.46-1.197-5.189-1.853-10.129-.45-3.378-2.111-5.43-7.118-5.431v.003z" style="fill-opacity:1;fill:#fff;fill-rule:nonzero" transform="translate(259.033 212.358) scale(3.77955)"/><path d="M-29.522-7.308c.969 4.196 3.336 8.569 5.679 12.065C-17.228 6.062-7.136 7.368-.125 6.521c7.046.851 17.203-.473 23.816-1.784 2.383-3.521 4.828-7.907 5.831-12.109-14.825 3.821-44.188 3.801-59.044.064z" style="fill-opacity:1;fill:#e0d8d0;fill-rule:nonzero" transform="translate(258.98 293.958) scale(3.77955)"/></g><g><path d="M-36.579-15.091c.324 1.364.057 2.39-.12 3.116 3.097 2.129 4.219 2.289 7.59 5.159 1.278 1.089 1.697 3.066 2.861 4.316C-16.871 7.571-5.089 14.865-2.215 17.991 1.829 14.721 15.955 5.883 22.484-.21c1.505-1.405 2.016-3.373 2.893-4.19 1.859-1.731 6.083-3.712 8.033-6.961-.129-6.63 3.289-.717-6.687 1.341-19.216 3.963-46.219 6.665-63.302-5.071z" style="fill-opacity:1;fill:#ed3238;fill-rule:nonzero" transform="translate(262.33 370.006) scale(3.77955)"/><path d="M-32.138-6.009C-36.497-2.475-13 4.699-.398 4.894c0 0 1.387-.053 3.093-.174 7.874-.563 26.883-3.626 32.436-7.459 1.347-.929 1.366-.954.607-2.154-2.035.515-4.302 2.369-6.468 2.897-19.791 4.83-44.217 8.005-61.408-4.013z" style="fill-opacity:1;fill:#f66;fill-rule:nonzero" transform="translate(250.754 338.432) scale(3.77955)"/><g style="stroke:#b20000;stroke-opacity:1;stroke-width:1.856;stroke-linecap:round;stroke-linejoin:round"><path d="M-34.871-16.541c.324 1.364.057 2.391-.12 3.117 2.308 1.925 3.74 2.416 7.59 5.158 1.363.97 1.697 3.066 2.861 4.316C-15.163 6.121-3.381 13.415-.507 16.541c4.044-3.27 18.17-12.107 24.699-18.2 1.505-1.405 2.016-3.373 2.893-4.19 1.859-1.731 5.843-4.465 7.792-7.713-.048-2.488-.116-2.566-.116-2.566s-2.764 3.477-8.999 4.763c-19.215 3.964-43.55 6.56-60.633-5.176z" transform="translate(255.875 375.487) scale(3.77955)"/></g></g><g><path d="M-1.546-.367c-.69 1.267-3.149 5.474-.393 5.1 1.261-.171 4.228-1.595 4.985-2.559C3.669 1.379 4.959.835 4.642-.41 3.446-5.106.329-3.076-1.546-.367z" style="fill-opacity:1;fill:#7a6359;fill-rule:nonzero" transform="translate(221.168 80.47) scale(3.77955)"/><path d="M1.81-.367c.69 1.267 3.149 5.474.393 5.1-1.261-.171-4.228-1.595-4.985-2.559C-3.405 1.379-4.695.835-4.377-.41c1.195-4.696 4.312-2.666 6.187.043z" style="fill-opacity:1;fill:#7a6359;fill-rule:nonzero" transform="translate(290.795 80.47) scale(3.77955)"/></g><g><path d="m.367-3.679-4.58 2.239c.615 2.082.169 3.438 2.024 4.65.718.469 2.496.16 3.191-.188.894-.448 1.229-.779 1.407-1.786.11-.616.141-1.195.141-1.832 0 0 1.663.044 1.314-1.221-.155-.56-.461-.974-.986-1.222-.476-.225-2.511-.64-2.511-.64z" style="fill-opacity:1;fill:#f4893a;fill-rule:nonzero" transform="translate(147.53 159.138) scale(3.77955)"/><g style="fill-opacity:1;fill:#c7e7ff;fill-rule:nonzero;stroke:#81c8ff;stroke-opacity:1;stroke-width:1.417;stroke-linecap:round;stroke-linejoin:round"><path d="M5.395-.563C2.179-1.634 1.791-3.617-1.601-4.007c-3.604-.414-5.62 1.806-5.62 4.779 0 1.412 1.1 3.649 3.565 3.107 2.409-.528 1.912-2.347 1.99-2.953 1.264-.981 3.961-.57 6.143-.57 1.941 0 2.744-.31.918-.919z" style="fill-opacity:1;fill:#c7e7ff;fill-rule:nonzero" transform="translate(158.748 148.922) scale(3.77955)"/></g><path d="M1.069 2.201s.46-.494.299-1.063c-.252-.89-.902-2.14-.149-3.349-1.312.1-2.747 4.422-.15 4.412z" style="fill-opacity:1;fill:#fff;fill-rule:nonzero" transform="translate(137.58 149.814) scale(3.77955)"/></g><g><path d="m.367-3.679-4.58 2.239c.615 2.082.169 3.438 2.024 4.65.718.469 2.496.16 3.191-.188.894-.448 1.229-.779 1.407-1.786.11-.616.141-1.195.141-1.832 0 0 1.663.044 1.314-1.221-.155-.56-.461-.974-.986-1.222-.476-.225-2.511-.64-2.511-.64z" style="fill-opacity:1;fill:#f4893a;fill-rule:nonzero" transform="matrix(-3.77955 0 0 3.77955 364.47 159.138)"/><g style="fill-opacity:1;fill:#c7e7ff;fill-rule:nonzero;stroke:#81c8ff;stroke-opacity:1;stroke-width:1.417;stroke-linecap:round;stroke-linejoin:round"><path d="M5.395-.563C2.179-1.634 1.791-3.617-1.601-4.007c-3.604-.414-5.62 1.806-5.62 4.779 0 1.412 1.1 3.649 3.565 3.107 2.409-.528 1.912-2.347 1.99-2.953 1.264-.981 3.961-.57 6.143-.57 1.941 0 2.744-.31.918-.919z" style="fill-opacity:1;fill:#c7e7ff;fill-rule:nonzero" transform="matrix(-3.77955 0 0 3.77955 353.252 148.922)"/></g><path d="M1.069 2.201s.46-.494.299-1.063c-.252-.89-.902-2.14-.149-3.349-1.312.1-2.747 4.422-.15 4.412z" style="fill-opacity:1;fill:#fff;fill-rule:nonzero" transform="matrix(-3.77955 0 0 3.77955 374.42 149.814)"/></g><g><g style="stroke:#d06612;stroke-opacity:1;stroke-width:1.984;stroke-linecap:round;stroke-linejoin:round"><path d="M-3.773-1.976C-3.159 1.091.16 1.643 3.773 1.976" transform="translate(136.253 312.323) scale(3.77955)"/></g><g style="stroke:#d06612;stroke-opacity:1;stroke-width:1.984;stroke-linecap:round;stroke-linejoin:round"><path d="M3.773-1.976C3.16 1.091-.161 1.643-3.773 1.976" transform="translate(379.886 312.323) scale(3.77955)"/></g></g><g><path d="M-5.738-13.644c-4.344-5.325-20.058 23.882-7.088 28.975C-3.56 18.969-2.051 10.39 7.21 8.538c.73.562 3.151.253 4.595 1.239 2.165 2.902 7.29 5.749 7.603-.575 1.568 1.318 6.388-.442 2.918-4.962 1.258-.451 2.092-1.853 1.343-3.413-1.284-2.677-6.583-4.343-9.334-4.961C5.169-6.193-1.285-2.4-5.661-1.238c0 0-1.029-8.291-.077-12.406z" style="fill-opacity:1;fill:#fff;fill-rule:nonzero" transform="translate(149.027 387.683) scale(3.77955)"/><path d="M-17.629-6.263c0 9.182 15.481 1.935 19.235-.283 2.297-1.356 7.967-.787 9.57 1.222.484.607 2.21 1.788 2.908 2.255.869.58 1.711.868 2.628 1.222.487.187 1.667-.515 1.667-.515l.422.619c-.372 6.163-5.442 3.337-7.593.454-1.445-.986-3.867-.678-4.597-1.241C-2.65-.677-4.159 7.902-13.424 4.264c-4.178-1.641-5.377-5.785-4.94-10.47l.735-.057z" style="fill-opacity:1;fill:#e0d8d0;fill-rule:nonzero" transform="translate(151.291 429.508) scale(3.77955)"/><g style="stroke:#a18b81;stroke-opacity:1;stroke-width:1.984;stroke-linecap:round;stroke-linejoin:round"><path d="M-8.485-14.566c-7.189-3.48-14.564 14.143-11.622 23.952.68 2.264 2.104 4.067 4.535 5.022 9.266 3.638 10.774-4.941 20.035-6.793.73.562 3.152.254 4.596 1.24 2.165 2.902 7.289 5.748 7.602-.576 1.568 1.318 6.388-.442 2.918-4.962 1.258-.451 2.093-1.853 1.344-3.413-1.284-2.677-6.583-4.343-9.334-4.961C2.423-7.116-4.032-3.322-8.408-2.16c0 0-1.029-8.291-.077-12.406z" transform="translate(159.41 391.168) scale(3.77955)"/></g><g style="stroke:#a18b81;stroke-opacity:1;stroke-width:1.984;stroke-linecap:round;stroke-linejoin:round"><path d="M2.51 1.787C1.061-.511-1.4-1.102-2.51-1.787" transform="translate(225.19 399.037) scale(3.77955)"/></g><g style="stroke:#a18b81;stroke-opacity:1;stroke-width:1.984;stroke-linecap:round;stroke-linejoin:round"><path d="M1.809 2.924c.57-2.735-2.982-5.256-4.188-5.848" transform="translate(214.818 416.971) scale(3.77955)"/></g><g style="stroke:#a18b81;stroke-opacity:1;stroke-width:1.984;stroke-linecap:round;stroke-linejoin:round"><path d="M-4.033 2.22C-2.628.771.467-1.045 4.033-2.22" transform="translate(137.345 383.205) scale(3.77955)"/></g><g style="stroke:#a18b81;stroke-opacity:1;stroke-width:1.984;stroke-linecap:round;stroke-linejoin:round"><path d="M1.985 1.058c-3.219-.176-3.97-2.116-3.97-2.116" transform="translate(180.243 418.324) scale(3.77955)"/></g><path d="M-5.641 9.122C.416 8.286 4.894 7.199 5.401 1.042c-.081-2.109-.062-4.419.24-6.177l-.012-.756c-2.147-3.231-6.743.563-9.138 5.405-1.862 3.766-1.781 8.34-2.132 9.608z" style="fill-opacity:1;fill:#ffad4f;fill-rule:nonzero" transform="translate(105.555 357.84) scale(3.77955)"/><g style="stroke:#d06612;stroke-opacity:1;stroke-width:1.984;stroke-linecap:round;stroke-linejoin:round"><path d="M5.214 4.112c.679-2.966.676-7.96 1.301-10.66C-.629-8.634-5.16.124-6.515 8.634" transform="translate(107.006 358.263) scale(3.77955)"/></g><g><path d="M-5.738-13.644c-4.344-5.325-20.058 23.882-7.088 28.975C-3.56 18.969-2.051 10.39 7.21 8.538c.73.562 3.151.253 4.595 1.239 2.165 2.902 7.29 5.749 7.603-.575 1.568 1.318 6.388-.442 2.918-4.962 1.258-.451 2.092-1.853 1.343-3.413-1.284-2.677-6.583-4.343-9.334-4.961C5.169-6.193-1.285-2.4-5.661-1.238c0 0-1.029-8.291-.077-12.406z" style="fill-opacity:1;fill:#fff;fill-rule:nonzero" transform="matrix(-3.77955 0 0 3.77955 360.973 387.683)"/><path d="M-17.629-6.263c0 9.182 15.481 1.935 19.235-.283 2.297-1.356 7.967-.787 9.57 1.222.484.607 2.21 1.788 2.908 2.255.869.58 1.711.868 2.628 1.222.487.187 1.667-.515 1.667-.515l.422.619c-.372 6.163-5.442 3.337-7.593.454-1.445-.986-3.867-.678-4.597-1.241C-2.65-.677-4.159 7.902-13.424 4.264c-4.178-1.641-5.377-5.785-4.94-10.47l.735-.057z" style="fill-opacity:1;fill:#e0d8d0;fill-rule:nonzero" transform="matrix(-3.77955 0 0 3.77955 358.71 429.508)"/><g style="stroke:#a18b81;stroke-opacity:1;stroke-width:1.984;stroke-linecap:round;stroke-linejoin:round"><path d="M-8.485-14.566c-7.189-3.48-14.564 14.143-11.622 23.952.68 2.264 2.104 4.067 4.535 5.022 9.266 3.638 10.774-4.941 20.035-6.793.73.562 3.152.254 4.596 1.24 2.165 2.902 7.289 5.748 7.602-.576 1.568 1.318 6.388-.442 2.918-4.962 1.258-.451 2.093-1.853 1.344-3.413-1.284-2.677-6.583-4.343-9.334-4.961C2.423-7.116-4.032-3.322-8.408-2.16c0 0-1.029-8.291-.077-12.406z" transform="matrix(-3.77955 0 0 3.77955 350.59 391.168)"/></g><g style="stroke:#a18b81;stroke-opacity:1;stroke-width:1.984;stroke-linecap:round;stroke-linejoin:round"><path d="M2.51 1.787C1.061-.511-1.4-1.102-2.51-1.787" transform="matrix(-3.77955 0 0 3.77955 284.812 399.037)"/></g><g style="stroke:#a18b81;stroke-opacity:1;stroke-width:1.984;stroke-linecap:round;stroke-linejoin:round"><path d="M1.809 2.924c.57-2.735-2.982-5.256-4.188-5.848" transform="matrix(-3.77955 0 0 3.77955 295.183 416.971)"/></g><g style="stroke:#a18b81;stroke-opacity:1;stroke-width:1.984;stroke-linecap:round;stroke-linejoin:round"><path d="M-4.033 2.22C-2.628.771.467-1.045 4.033-2.22" transform="matrix(-3.77955 0 0 3.77955 372.656 383.205)"/></g><g style="stroke:#a18b81;stroke-opacity:1;stroke-width:1.984;stroke-linecap:round;stroke-linejoin:round"><path d="M1.985 1.058c-3.219-.176-3.97-2.116-3.97-2.116" transform="matrix(-3.77955 0 0 3.77955 329.758 418.324)"/></g><path d="M-5.641 9.122C.416 8.286 4.894 7.199 5.401 1.042c-.081-2.109-.062-4.419.24-6.177l-.012-.756c-2.147-3.231-6.743.563-9.138 5.405-1.862 3.766-1.781 8.34-2.132 9.608z" style="fill-opacity:1;fill:#ffad4f;fill-rule:nonzero" transform="matrix(-3.77955 0 0 3.77955 404.446 357.84)"/><g style="stroke:#d06612;stroke-opacity:1;stroke-width:1.984;stroke-linecap:round;stroke-linejoin:round"><path d="M5.214 4.112c.679-2.966.676-7.96 1.301-10.66C-.629-8.634-5.16.124-6.515 8.634" transform="matrix(-3.77955 0 0 3.77955 402.994 358.263)"/></g></g></g><g><g style="stroke:#b20000;stroke-opacity:1;stroke-width:1.856;stroke-linecap:round;stroke-linejoin:round"><path d="M-8.139-4.745C-1.952-.729 3.044 2.804 8.139 4.745" transform="translate(154.387 342.68) scale(3.77955)"/></g><g style="stroke:#b20000;stroke-opacity:1;stroke-width:1.813;stroke-linecap:round;stroke-linejoin:round"><path d="M7.032-4.203C3.621-.211-1.934 2.625-7.032 4.203" transform="translate(360.765 343.376) scale(3.77955)"/></g></g><g><path d="M-9.161-11.842c1.247 1.253-1.525 3.252-1.878 4.876-1.266 5.836 4.804 6.36 8.906 6.6a34.66 34.66 0 0 0 4 0c4.103-.24 9.683-.862 8.417-6.697-.353-1.624-3.693-4.07-2.446-5.324l-8.673-1.612h-.316l-8.01 2.157z" style="fill-opacity:1;fill:#fff;fill-rule:nonzero" transform="translate(258.508 268.629) scale(3.77955)"/><g style="fill-opacity:1;fill:#b32b2b;fill-rule:nonzero;stroke:#231f20;stroke-opacity:1;stroke-width:1.417;stroke-linecap:round;stroke-linejoin:round"><path d="M-9.161-10.858c1.247.953-1.525 2.647-1.878 3.881-1.266 4.436 3.944 3.647 8.046 3.83a45.22 45.22 0 0 0 4 0c4.103-.183 10.543.532 9.277-3.904-.353-1.234-3.693-3.157-2.446-4.11l-8.673-1.162h-.316l-8.01 1.465z" style="fill-opacity:1;fill:#b32b2b;fill-rule:nonzero" transform="translate(258.508 262.294) scale(3.77955)"/></g><g style="fill-opacity:1;fill:#f99;fill-rule:nonzero;stroke:#d14d4d;stroke-opacity:1;stroke-width:1.417;stroke-linecap:round;stroke-linejoin:round"><path d="M-7.967-7.471c-.522-1.457 2.197-1.858 3.568-1.87 1.048-.008 2.702.536 3.435 1.207 1.456-.683 2.32-1.59 4.985-.935.771.19 3.278.814 2.295 1.777l-2.312.806c-1.03.367-3.631.248-5.571.297-2.834.072-5.759.501-6.4-1.282z" style="fill-opacity:1;fill:#f99;fill-rule:nonzero" transform="translate(258.436 273.281) scale(3.77955)"/></g><g style="fill-opacity:1;fill:#fff;fill-rule:nonzero;stroke:#a18b81;stroke-opacity:1;stroke-width:1.417;stroke-linecap:round;stroke-linejoin:round"><path d="M-.002-10.063c1.043.278 1.506 2.334 1.603 3.448.096 1.117-.495 1.479-1.45 1.249-.971-.232-2.075-.745-2.325-1.376-.714-1.8 1.379-3.533 2.172-3.321z" style="fill-opacity:1;fill:#fff;fill-rule:nonzero" transform="translate(232.051 269.608) scale(3.77955)"/></g><g style="fill-opacity:1;fill:#fff;fill-rule:nonzero;stroke:#a18b81;stroke-opacity:1;stroke-width:1.417;stroke-linecap:round;stroke-linejoin:round"><path d="M-1.19-10.064c-1.042.278-1.506 2.333-1.602 3.449-.096 1.116.495 1.478 1.45 1.249C-.371-5.6.732-6.111.983-6.743c.714-1.8-1.38-3.532-2.173-3.321z" style="fill-opacity:1;fill:#fff;fill-rule:nonzero" transform="translate(287.78 268.723) scale(3.77955)"/></g><g style="stroke:#000;stroke-opacity:1;stroke-width:1.984;stroke-linecap:round;stroke-linejoin:round"><path d="M-8.936-10.739c1.247.953-1.525 2.647-1.878 3.881-1.266 4.436 3.944 3.647 8.046 3.83a45.22 45.22 0 0 0 4 0c4.103-.183 10.543.532 9.277-3.904-.353-1.234-4.144-2.771-2.896-3.725-5.775-1.511-11.038-2.514-16.549-.082z" transform="translate(257.654 261.844) scale(3.77955)"/></g></g><g><path d="M3.968 3.697c-1.02 1.452-8.305 3.279-9.056 1.376-2.616-6.626 7.061-12.512 10.032-8.92 1.017 1.229 2.76 7.464-.976 7.544z" style="fill-opacity:1;fill:#d1c6c1;fill-rule:nonzero" transform="matrix(4.50825 0 0 3.77955 228.765 234.706)"/><path d="M3.906 4.013C-.279 5.506-4.394 2.072-2.881-3.1c.391-1.336.043-2.87 1.715-1.638C.387-3.592 2.024-2.54 3.407-1.103c.723.751.532 1.585.394 2.435-.15.912.105 2.681.105 2.681z" style="fill-opacity:1;fill:#a18b81;fill-rule:nonzero" transform="translate(241.267 235.87) scale(3.77955)"/><path d="M-3.902 3.021c1.081 1.407 8.541 3.814 9.21 1.88C7.638-1.83-1.718-8.158-4.533-4.441c-.963 1.27-3.105 7.542.631 7.462z" style="fill-opacity:1;fill:#d1c6c1;fill-rule:nonzero" transform="matrix(4.55969 0 0 3.77955 284.2 236.498)"/><path d="M-4.04 4.524C.205 5.836 4.177 1.669 2.444-3.433 1.996-4.752 2.278-6.299.66-4.996-.843-3.785-2.432-2.664-3.753-1.168c-.689.781-.22 1.6-.045 2.443.189.905-.242 3.249-.242 3.249z" style="fill-opacity:1;fill:#a18b81;fill-rule:nonzero" transform="translate(274.735 235.662) scale(3.77955)"/><g style="stroke:#a18b81;stroke-opacity:1;stroke-width:1.984;stroke-linecap:round;stroke-linejoin:round"><path d="M-8.883-2.788C-7.214.429 3.272 2.922 8.883-2.922" transform="translate(259.266 303.248) scale(3.77955)"/></g><g style="stroke:#a18b81;stroke-opacity:1;stroke-width:1.417;stroke-linecap:round;stroke-linejoin:round"><path d="M3.614-7.413C-.242-5.951-3.614-1.587-.119 7.413" transform="translate(171.134 267.048) scale(3.77955)"/></g><path d="M-8.171 4.813c-.366 1.148-3.009-.991-3.009-3.731 0-2.735.613-4.546 3.048-5.544 3.657-1.499 6.515 1.152 10.368.188 1.985-.497 2.702-1.41 5.067-1.41 1.757 0 3.33 1.837 3.33 1.837.548 1.204-3.796.853-4.925 1.265C3.902-1.925 2.431-.704.454-.704c-1.254 0-2.866-1.114-4.222-1.41-1.702-.371-3.922.308-4.599 1.41-1.163 1.893.376 3.51.196 5.517z" style="fill-opacity:1;fill:#7a6359;fill-rule:nonzero" transform="translate(216.284 262.535) scale(3.77955)"/><g style="stroke:#000;stroke-opacity:1;stroke-width:1.984;stroke-linecap:round;stroke-linejoin:round"><path d="M-8.28 4.42c-3.406-7.123 1.778-8.84 7.393-5.857C1.857.02 3.407-2.678 5.334-3.173 6.372-3.44 7.34-4 8.597-3.582c1.232.411 1.834 1.396 3.089.364" transform="translate(216.696 264.02) scale(3.77955)"/></g><path d="M8.172 4.813c.364 1.148 3.008-.991 3.008-3.731 0-2.735-.614-4.546-3.049-5.544-3.657-1.499-6.515 1.152-10.368.188-1.985-.497-2.701-1.41-5.066-1.41-1.757 0-3.33 1.837-3.33 1.837-.547 1.204 3.796.853 4.924 1.265 1.807.657 3.277 1.878 5.255 1.878 1.253 0 2.865-1.114 4.222-1.41 1.703-.371 3.921.308 4.598 1.41 1.163 1.893-.375 3.51-.194 5.517z" style="fill-opacity:1;fill:#7a6359;fill-rule:nonzero" transform="translate(298.989 262.535) scale(3.77955)"/><g style="stroke:#000;stroke-opacity:1;stroke-width:1.984;stroke-linecap:round;stroke-linejoin:round"><path d="M8.28 4.42C11.686-2.703 6.502-4.42.887-1.437-1.857.02-3.407-2.678-5.334-3.173-6.372-3.44-7.341-4-8.598-3.582c-1.231.411-1.833 1.396-3.088.364" transform="translate(299.503 264.02) scale(3.77955)"/></g><g style="stroke:#000;stroke-opacity:1;stroke-width:1.984;stroke-linecap:round;stroke-linejoin:round"><path d="m-.04 2.357.08-4.714" transform="translate(257.55 244.26) scale(3.77955)"/></g><g style="stroke:#a18b81;stroke-opacity:1;stroke-width:1.417;stroke-linecap:round;stroke-linejoin:round"><path d="M-4.372-7.59C-.093-6.6 4.372-2.31.526 7.59" transform="translate(346.312 266.379) scale(3.77955)"/></g><g style="stroke:#a18b81;stroke-opacity:1;stroke-width:1.984;stroke-linecap:round;stroke-linejoin:round"><path d="M-4.138-8.244c.776 1.499 5.662 2.659 8.276-.062" transform="translate(259.266 303.248) scale(3.77955)"/></g></g><g><g style="fill-opacity:1;fill:#1c1410;fill-rule:nonzero;stroke:#000;stroke-opacity:1;stroke-width:1.984;stroke-linecap:round;stroke-linejoin:round"><path d="M.099-9.294h-.196c-4.274-.025-13.843-.783-15.523 2.848C-18.717.254-4.547 8.134-.266 9.872l-.001.206.267-.1.268.1-.001-.206C4.547 8.134 18.717.254 15.62-6.446 13.941-10.076 4.372-9.319.099-9.294z" style="fill-opacity:1;fill:#1c1410;fill-rule:nonzero" transform="translate(257.742 201.132) scale(3.77955)"/></g><path d="M-6.482-1.85c-1.192.322-3.89.377-4.426 1.573C-12.275 2.774.81 2.583 2.656 2.583c1.969 0 8.389.611 8.851-1.788.768-3.989-14.858-2.787-17.989-2.645z" style="fill-opacity:1;fill:#7a6359;fill-rule:nonzero" transform="translate(255.607 178.704) scale(3.77955)"/></g></svg>