<svg width="666" height="447" viewBox="0 0 666 447" fill="none" xmlns="http://www.w3.org/2000/svg">
<path d="M154.203 315C154.203 315 107.321 341.186 62.8687 291.426C62.8687 291.426 26.69 315.2 15.3066 297.933C3.92312 280.666 45.0662 235.293 59.5724 249.293C59.5724 249.293 66.0982 226.813 81.3117 227.253" fill="white"/>
<path d="M123.922 325.894C124.376 325.894 124.83 325.88 125.284 325.88C143.353 325.533 155.644 318.787 156.151 318.494C158.086 317.414 158.78 314.987 157.699 313.054C156.618 311.12 154.189 310.44 152.254 311.507C150.412 312.534 107.508 335.4 65.8575 288.76C64.523 287.28 62.321 287 60.6662 288.08C60.3459 288.293 27.5568 309.254 18.6556 295.734C13.3576 287.707 24.3673 268.947 37.3789 258.16C43.7312 252.894 52.6324 248.16 56.7961 252.16C57.8103 253.134 59.2516 253.507 60.5995 253.147C61.9607 252.787 63.0284 251.747 63.4154 250.4C63.4688 250.214 69.1805 231.254 80.8708 231.254H81.1911C83.4197 231.334 85.248 229.587 85.3148 227.374C85.3815 225.174 83.6467 223.32 81.4314 223.254C68.0995 222.88 60.5996 236.053 57.4768 243.413C50.7775 241.133 41.7828 244.12 32.2677 252C18.6957 263.254 2.86833 286.334 11.9697 300.134C23.4066 317.494 52.7259 302.147 62.1476 296.56C84.7677 320.56 107.881 325.894 123.922 325.894Z" fill="#62312D"/>
<path d="M544.563 282.427C544.563 282.427 566.4 291.307 573.112 310.707C573.112 310.707 587.183 313.747 591.165 321.961C595.147 330.187 580.774 348.334 558.089 343.587C558.089 343.587 515.624 368.201 469.285 331.654" fill="white"/>
<path d="M523.582 355.68C526.386 355.68 529.016 355.546 531.452 355.306C545.297 353.973 555.216 349.546 558.723 347.773C574.112 350.453 585.637 343.746 591.38 336.4C595.721 330.853 596.987 324.8 594.769 320.226C590.965 312.36 580.74 308.653 576.123 307.346C568.187 287.906 547.002 279.106 546.073 278.72C544.023 277.893 541.689 278.88 540.856 280.92C540.023 282.973 541.007 285.306 543.053 286.133C543.36 286.266 563.325 294.653 569.329 312.013C569.786 313.333 570.902 314.32 572.269 314.613C575.654 315.36 585.01 318.44 587.562 323.706C588.222 325.066 587.724 328.08 585.07 331.48C580.631 337.146 571.431 342.28 558.91 339.666C557.942 339.466 556.936 339.626 556.08 340.12C554.444 341.066 515.302 362.853 471.768 328.506C470.033 327.146 467.516 327.44 466.145 329.173C464.774 330.906 465.07 333.426 466.806 334.786C487.915 351.44 508.297 355.68 523.582 355.68" fill="#62312D"/>
<path d="M122.081 158.454C122.081 158.454 95.9779 163.401 87.7039 143.827C79.4166 124.267 60.026 161.694 67.3525 177.174C67.3525 177.174 44.9726 187.707 88.7181 214.307C131.97 240.587 122.081 158.454 122.081 158.454Z" fill="#F7A447"/>
<path d="M88.7182 214.307C44.9727 187.707 67.3526 177.173 67.3526 177.173C67.3526 177.173 93.7627 196.28 120.133 206.133C116.209 218.227 107.455 225.68 88.7182 214.307Z" fill="white"/>
<path d="M118.505 162.893C119.612 176.173 119.852 202.386 111.312 212.013C109.203 214.386 106.801 215.493 103.758 215.493C100.195 215.493 95.8312 213.946 90.8 210.88C67.6328 196.8 65.4842 188.56 65.6444 185.666C65.8179 182.4 69.0208 180.8 69.0608 180.787C70.0217 180.333 70.7556 179.52 71.1159 178.52C71.4762 177.52 71.4229 176.426 70.9691 175.466C67.793 168.733 71.0492 155.72 76.0803 147.787C78.9362 143.28 81.1249 142.293 81.7387 142.293C82.1124 142.293 83.0599 143.133 84.0074 145.387C88.825 156.76 99.7948 163.013 114.928 163.013C116.236 163.013 117.45 162.96 118.505 162.893V162.893ZM103.758 223.493C109.11 223.493 113.66 221.413 117.304 217.32C131.143 201.72 126.272 159.76 126.058 157.973C125.925 156.88 125.337 155.88 124.443 155.227C123.549 154.573 122.428 154.32 121.334 154.533C121.321 154.533 118.665 155.013 114.928 155.013C106.641 155.013 95.8446 152.8 91.3873 142.28C88.5981 135.68 84.5946 134.293 81.7387 134.293C77.4282 134.293 73.131 137.48 69.3143 143.493C63.7093 152.347 60.0661 166 62.5617 175.6C60.2129 177.64 57.8775 180.866 57.6373 185.24C57.1301 194.92 66.6186 205.547 86.6497 217.72C92.9486 221.547 98.7004 223.493 103.758 223.493" fill="#62312D"/>
<path d="M77.9336 197.507C109.215 117.694 249.126 119.147 324.926 126.214L324.713 125.494L318.547 109.987C341.685 110.867 350.137 119.761 350.137 119.761L346.133 103.321C384.834 104.427 421.284 148.521 421.284 148.521C551.898 201.987 566.211 294.254 566.211 294.254L543.377 292.054C566.112 313.827 549.852 330.561 549.852 330.561L532.941 317.294C532.981 349.214 458.074 371.027 458.074 371.027C72.422 451.347 40.754 292.427 77.9336 197.507" fill="#F7A447"/>
<path d="M346.579 101.907C362.284 106.24 398.18 119.76 402.797 137.653C404.656 150.013 416.355 187.027 424.87 200.2C458.9 252.867 499.883 231.707 499.883 231.707L530.555 307.533L519.556 320.653C442.735 294.2 412.192 236.2 404.315 201.973C399.25 179.973 330.345 155.76 323.379 126.827C327.903 127.44 316.773 110.187 324.713 111.32C330.879 112.2 340.186 117.84 350.536 119.373C354.503 119.973 346.579 101.907 346.579 101.907" fill="white"/>
<path d="M448 373.08C294.098 403.96 197.999 395.934 140.709 369.214C422.176 351.96 447.785 372.894 448 373.08Z" fill="white"/>
<path d="M549.852 330.56L532.941 317.293C532.981 349.213 458.074 371.027 458.074 371.027C454.695 371.72 451.349 372.413 448.025 373.08L481.253 362.2L519.555 320.654C470.445 288.774 499.883 231.707 499.883 231.707L558.07 269.267C564.68 284.4 566.211 294.254 566.211 294.254L543.377 292.054C566.112 313.827 549.852 330.56 549.852 330.56" fill="white"/>
<path d="M457.104 367.134C387.493 381.627 325.835 388.974 273.856 388.974C182.815 388.974 118.985 366 89.2922 322.52C57.157 275.48 73.2513 220.44 81.6721 198.96C104.919 139.6 192.344 127.147 261.592 127.147C281.636 127.147 302.815 128.16 324.554 130.187C325.875 130.307 327.157 129.774 327.997 128.76C328.851 127.747 329.132 126.387 328.771 125.107L328.571 124.4C328.531 124.28 328.491 124.147 328.438 124.027L324.634 114.454C340.874 116.334 347.201 122.48 347.27 122.547C348.538 123.827 350.519 124.107 352.08 123.227C353.647 122.347 354.454 120.56 354.028 118.814L351.335 107.747C385.799 112.387 417.864 150.667 418.2 151.067C418.619 151.574 419.158 151.974 419.768 152.227C529.271 197.04 555.758 269.894 561.076 289.734L543.763 288.067C542.063 287.92 540.451 288.84 539.74 290.387C539.029 291.934 539.377 293.76 540.609 294.947C555.152 308.867 552.004 319.814 549.086 324.867L535.416 314.147C534.208 313.2 532.568 313.027 531.19 313.707C529.812 314.374 528.938 315.774 528.94 317.307C528.97 340.934 477.245 361.24 457.104 367.134V367.134ZM273.856 396.974C326.423 396.974 388.681 389.56 458.892 374.934L459.195 374.867C462.14 374 526.495 354.92 535.823 324.64L547.384 333.707C548.995 334.96 551.301 334.814 552.728 333.347C553.012 333.054 559.683 326.054 559.487 315.08C559.376 308.947 557.202 302.894 553.006 297L565.828 298.24C567.059 298.347 568.276 297.894 569.125 297C569.972 296.107 570.359 294.867 570.17 293.64C570.017 292.667 566.223 269.347 546.058 239.214C527.669 211.734 491.532 173.16 423.714 145.2C418.396 138.987 383.879 100.4 346.249 99.3204C345.002 99.267 343.807 99.827 343.024 100.8C342.237 101.774 341.95 103.054 342.245 104.267L343.947 111.254C338.459 108.814 330.253 106.427 318.709 105.987C317.361 105.934 316.067 106.574 315.293 107.68C314.505 108.774 314.332 110.2 314.839 111.454L318.883 121.654C299.145 119.987 279.901 119.147 261.592 119.147C189.861 119.147 99.1142 132.48 74.2121 196.054C65.3376 218.707 48.3893 276.84 82.673 327.027C97.4061 348.6 119.759 365.48 149.079 377.174C182.001 390.32 223.985 396.974 273.856 396.974" fill="#62312D"/>
<path d="M547.07 77.3736C547.07 77.3736 530.885 19.6269 453.565 6.49361C376.245 -6.65305 397.016 47.0802 467.062 125.547L547.07 77.3736Z" fill="#F7A447"/>
<path d="M542.223 75.6135L467.845 120.414C407.725 52.5069 405.506 27.0403 409.616 17.8669C412.401 11.6536 420.27 8.50689 433.001 8.50689C438.697 8.50689 445.389 9.16028 452.893 10.4269C491.445 16.9869 513.927 35.0935 526.001 49.1469C535.601 60.3069 540.352 70.7602 542.223 75.6135V75.6135ZM467.064 129.547C467.772 129.547 468.486 129.36 469.129 128.974L549.137 80.8003C550.679 79.8669 551.411 78.027 550.926 76.2936C550.751 75.667 546.479 60.8136 532.36 44.2669C519.419 29.0936 495.362 9.53354 454.237 2.54687C446.29 1.18687 439.145 0.506894 433.001 0.506894C416.828 0.506894 406.501 5.25359 402.31 14.6003C393.51 34.2136 414.291 72.4402 464.074 128.214C464.857 129.094 465.953 129.547 467.064 129.547" fill="#62312D"/>
<path d="M145.928 362.32C145.928 362.32 99.0461 388.507 54.5933 338.747C54.5933 338.747 18.4146 362.52 7.03117 345.253C-4.35227 327.987 36.7908 282.613 51.297 296.613C51.297 296.613 57.8229 274.133 73.0364 274.573" fill="#F7A447"/>
<path d="M7.03282 345.253C-4.35061 327.987 36.7925 282.613 51.2987 296.6C51.2987 296.6 54.982 283.933 63.256 277.813C73.5051 290.16 77.9758 319.413 75.4936 331.987C72.4375 347.493 83.7009 361.56 83.7676 361.653C74.2792 356.96 64.377 349.693 54.5949 338.747C54.5949 338.747 18.4163 362.52 7.03282 345.253" fill="white"/>
<path d="M115.647 373.214C116.101 373.214 116.554 373.201 117.008 373.201C135.078 372.854 147.368 366.107 147.876 365.814C149.811 364.734 150.491 362.307 149.424 360.374C148.343 358.441 145.914 357.761 143.979 358.827C142.137 359.841 99.2325 382.721 57.5822 336.081C56.261 334.601 54.0457 334.307 52.3909 335.401C52.0572 335.614 19.2815 356.574 10.3803 343.054C5.08225 335.027 16.092 316.267 29.1035 305.481C35.4558 300.201 44.3571 295.481 48.5208 299.481C49.5216 300.454 50.9763 300.841 52.3241 300.467C53.6853 300.107 54.753 299.067 55.14 297.721C55.1934 297.534 60.9051 278.574 72.5955 278.574H72.9157C75.131 278.641 76.9727 276.907 77.0394 274.694C77.1062 272.494 75.358 270.641 73.156 270.574C59.8109 270.214 52.3109 283.374 49.2014 290.734C42.5022 288.454 33.5075 291.427 23.9924 299.321C10.4203 310.574 -5.40709 333.654 3.68098 347.454C15.1311 364.814 44.4506 349.467 53.8723 343.881C76.4923 367.881 99.6061 373.214 115.647 373.214Z" fill="#62312D"/>
<path d="M411.524 152.854C411.524 152.854 415.885 109.854 473.807 84.8406C531.729 59.8406 600.833 61.6006 611.475 159.081C611.475 159.081 650.259 147.894 657.275 176.254C664.291 204.601 672.046 238.934 599.279 261.041C599.279 261.041 591.001 286.707 557.227 282.881" fill="#F7A447"/>
<path d="M599.279 261.041C599.279 261.041 591.001 286.707 557.227 282.881L499.884 231.707C500.642 229.747 501.775 227.801 502.712 225.574C530.555 159.534 587.827 244.054 595.764 162.534C603.284 85.3073 534.301 79.5339 519.822 78.8673C515.408 78.6673 510.637 77.4005 507.984 73.8805C556.156 64.0672 602.881 80.3605 611.475 159.081C611.475 159.081 650.259 147.894 657.275 176.254C664.291 204.601 672.046 238.934 599.279 261.041Z" fill="white"/>
<path d="M563.852 287.267C589.368 287.267 599.479 270.28 602.245 264.307C677.382 240.853 668.016 202.987 661.161 175.293C659.198 167.36 654.861 161.413 648.272 157.6C637.075 151.147 622.288 152.773 614.92 154.2C609.999 116.653 595.872 90.8666 572.891 77.5066C547.567 62.7733 511.814 64.0799 472.219 81.1733C412.822 106.813 407.727 150.6 407.54 152.453C407.317 154.653 408.92 156.613 411.119 156.84C413.332 157.053 415.279 155.467 415.506 153.267C415.695 151.52 420.599 112.173 475.395 88.52C496.94 79.2133 537.734 66.3066 568.863 84.4132C590.426 96.9599 603.423 122.227 607.495 159.52C607.623 160.693 608.263 161.747 609.245 162.413C610.228 163.067 611.449 163.253 612.584 162.933C612.775 162.88 632.068 157.48 644.287 164.547C648.973 167.253 651.95 171.4 653.389 177.213C660.208 204.773 667.938 236 598.114 257.213C596.858 257.587 595.871 258.56 595.468 259.813C595.166 260.72 587.609 282.293 557.676 278.907C555.494 278.667 553.497 280.24 553.248 282.44C553 284.627 554.58 286.613 556.776 286.853C559.256 287.133 561.614 287.267 563.852 287.267Z" fill="#62312D"/>
<path d="M599.627 263.387C599.627 263.387 556.988 298.2 547.865 230.373C547.865 230.373 562.194 257.227 599.627 263.387" fill="#62312D"/>
<path d="M502.711 80.3068C502.711 80.3068 377.155 20.2535 349.823 46.5602C322.498 72.8668 432.299 208.787 446.381 148.773C446.381 148.773 467.72 149.867 473.861 141.054" fill="#F7A447"/>
<path d="M483.59 125.547C483.59 125.547 481.572 147.347 446.382 148.773C446.382 148.773 442.555 179.227 409.859 155.373C377.162 131.533 321.898 53.6267 355.467 47.44C389.037 41.2533 483.59 125.547 483.59 125.547Z" fill="#FAE9BF"/>
<path d="M431.156 167.92C431.842 167.92 432.516 167.88 433.182 167.813C438.704 167.253 445.779 164.12 449.411 152.827C456.244 152.787 471.321 151.693 477.148 143.333C478.41 141.52 477.963 139.027 476.148 137.76C474.333 136.507 471.839 136.947 470.575 138.76C466.599 144.48 451.541 145.027 446.585 144.787C444.642 144.68 442.924 145.973 442.482 147.867C439.848 159.093 434.216 159.667 432.367 159.853C412.46 161.907 372.722 118.6 356.447 83.5465C348.737 66.9465 347.334 54.5065 352.6 49.4399C373.377 29.4399 466.753 67.5466 500.981 83.9199C502.979 84.8666 505.366 84.0265 506.322 82.0398C507.276 80.0398 506.434 77.6532 504.439 76.7065C504.122 76.5465 472.43 61.4533 437.794 49.7866C390.076 33.7066 359.542 31.6532 347.046 43.6798C338.934 51.4798 339.674 66.4399 349.185 86.9199C364.748 120.427 405.301 167.92 431.156 167.92" fill="#62312D"/>
<path d="M580.771 258.334C580.771 258.334 571.352 261.721 561.977 269.441C552.601 277.161 519.329 286.774 514.366 264.347C509.403 241.921 533.343 233.734 554.183 239.507C575.021 245.281 580.771 258.334 580.771 258.334" fill="#F57385"/>
<path d="M574.866 256.533C571.02 258.387 565.229 261.587 559.431 266.36C555.403 269.667 544.443 274.253 534.341 274.267H534.338C525.261 274.267 519.857 270.64 518.274 263.48C517.012 257.773 517.861 253.027 520.797 249.373C524.651 244.573 532.263 241.72 541.16 241.72C545.154 241.72 549.174 242.267 553.112 243.36C565.392 246.76 571.847 252.747 574.866 256.533V256.533ZM534.338 282.267H534.341C545.832 282.253 558.709 277.307 564.522 272.533C573.201 265.387 582.046 262.12 582.135 262.093C583.175 261.72 584.015 260.92 584.45 259.907C584.885 258.893 584.882 257.733 584.436 256.72C584.17 256.12 577.663 241.867 555.251 235.653C550.618 234.373 545.878 233.72 541.16 233.72C529.69 233.72 519.992 237.6 514.554 244.36C510.086 249.92 508.669 257.133 510.457 265.213C512.888 276.2 521.372 282.267 534.338 282.267Z" fill="#62312D"/>
<path d="M539.934 262.267C557.86 262.267 566.128 254.08 566.501 253.693C568.051 252.12 568.028 249.587 566.449 248.04C564.881 246.507 562.366 246.52 560.815 248.067C560.435 248.427 552.781 255.573 535.183 254.053C532.973 253.853 531.038 255.493 530.847 257.693C530.655 259.893 532.284 261.827 534.487 262.013C536.393 262.187 538.208 262.267 539.934 262.267" fill="#62312D"/>
<path d="M484.662 127.107C486.094 127.107 487.486 126.854 488.833 126.347C498.102 122.84 500.222 108.614 500.432 107C500.719 104.814 499.175 102.8 496.983 102.52C494.798 102.24 492.783 103.774 492.493 105.96C492.01 109.56 489.786 117.44 485.994 118.867C483.271 119.894 479.51 117.32 476.834 114.987C460.638 100.88 378.235 31.1736 346.201 45.4003C344.181 46.307 343.273 48.6669 344.171 50.6802C345.069 52.7069 347.434 53.6137 349.457 52.7203C372.363 42.5204 439.354 92.947 471.571 121.027C476.22 125.08 480.607 127.107 484.662 127.107" fill="#62312D"/>
<path d="M599.279 261.04C599.279 261.04 565.623 266.253 547.5 225.573Z" fill="white"/>
<path d="M595.897 265.214C598.354 265.214 599.822 265.001 599.892 264.987C602.078 264.654 603.574 262.614 603.235 260.427C602.896 258.241 600.853 256.747 598.678 257.081C597.374 257.267 567.722 261.134 551.156 223.947C550.258 221.934 547.89 221.027 545.87 221.921C543.851 222.827 542.942 225.187 543.841 227.201C559.228 261.747 585.845 265.214 595.897 265.214" fill="#62312D"/>
<path d="M548.317 149.2C547.755 160.147 554.178 169.36 562.664 169.8C571.149 170.227 578.482 161.72 579.044 150.773C579.606 139.84 573.181 130.613 564.696 130.187C556.212 129.747 548.877 138.267 548.317 149.2Z" fill="#62312D"/>
<path d="M632.646 162.027C632.646 162.027 632.507 149.12 649.897 153.52C667.287 157.92 668.17 206.16 660.373 201.68C652.576 197.214 639.77 184.374 632.646 162.027" fill="#62312D"/>
<path d="M518.015 319.96C518.015 319.96 539.853 328.827 546.564 348.24C546.564 348.24 560.634 351.267 564.616 359.493C568.598 367.707 554.227 385.853 531.541 381.12C531.541 381.12 489.077 405.733 442.737 369.173" fill="#F7A447"/>
<path d="M465.618 382.841C473.222 372.841 492.954 371.001 491.376 370.201C489.596 369.321 501.607 352.427 513.704 348.427C525.801 344.427 522.024 321.907 522.024 321.907C528.651 325.481 541.653 334.041 546.564 348.241C546.564 348.241 560.634 351.267 564.616 359.494C568.598 367.707 554.227 385.854 531.541 381.121C531.541 381.121 502.165 398.134 465.618 382.841" fill="white"/>
<path d="M497.032 393.214C499.837 393.214 502.468 393.067 504.902 392.841C518.747 391.494 528.666 387.081 532.173 385.307C547.564 387.987 559.087 381.281 564.831 373.921C569.171 368.374 570.439 362.334 568.221 357.747C564.415 349.894 554.19 346.187 549.575 344.881C541.638 325.427 520.452 316.627 519.523 316.254C517.476 315.427 515.14 316.401 514.306 318.454C513.474 320.494 514.457 322.827 516.503 323.667C516.811 323.787 536.777 332.187 542.779 349.547C543.237 350.867 544.352 351.854 545.721 352.147C549.104 352.881 558.46 355.961 561.013 361.227C561.672 362.601 561.174 365.614 558.521 369.001C554.083 374.681 544.879 379.814 532.361 377.201C531.392 377.001 530.387 377.161 529.532 377.654C527.896 378.601 488.752 400.374 445.218 366.041C443.483 364.667 440.965 364.961 439.596 366.694C438.225 368.427 438.52 370.947 440.257 372.321C461.366 388.974 481.748 393.214 497.032 393.214" fill="#62312D"/>
<path d="M563.681 141.667C563.681 143.947 565.533 145.8 567.818 145.8C570.103 145.8 571.955 143.947 571.955 141.667C571.955 139.374 570.103 137.534 567.818 137.534C565.533 137.534 563.681 139.374 563.681 141.667Z" fill="white"/>
<path d="M294.352 446.16C443.446 446.16 564.307 434.6 564.307 420.347C564.307 407.147 460.644 396.267 326.915 394.733C308.285 396.227 290.576 396.973 273.854 396.973C259.148 396.973 245.109 396.4 231.804 395.24C112.871 397.933 24.4062 408.16 24.4062 420.347C24.4062 434.6 145.274 446.16 294.352 446.16" fill="#B0B0AE"/>
<path d="M273.854 396.974C290.575 396.974 308.284 396.227 326.914 394.734C316.238 394.614 305.375 394.547 294.352 394.547C272.826 394.547 251.874 394.787 231.803 395.24C245.108 396.4 259.147 396.974 273.854 396.974" fill="#422220"/>
</svg>
